<?xml version="1.0" encoding="utf-8"?>
<!-- Generator: Adobe Illustrator 16.0.0, SVG Export Plug-In . SVG Version: 6.00 Build 0)  -->
<!DOCTYPE svg PUBLIC "-//W3C//DTD SVG 1.1//EN" "http://www.w3.org/Graphics/SVG/1.1/DTD/svg11.dtd">
<svg version="1.1" id="Layer_1" xmlns:sketch="http://www.bohemiancoding.com/sketch/ns"
	 xmlns="http://www.w3.org/2000/svg" xmlns:xlink="http://www.w3.org/1999/xlink" x="0px" y="0px" width="200px" height="200px"
	 viewBox="0 0 200 200" enable-background="new 0 0 200 200" xml:space="preserve">
<title>science-fox</title>
<desc>Created with Sketch.</desc>
<g id="Page-1_1_" sketch:type="MSPage">
	<g id="science-fox" sketch:type="MSArtboardGroup">
		<g id="Page-1" sketch:type="MSLayerGroup">
			<path id="Fill-1" sketch:type="MSShapeGroup" fill="#2581B7" d="M0,0.689V127.6l52.439,45.711L173.576,56.372L126.141,0.689H0z"
				/>
			<g id="Group-6" transform="translate(25.908046, 28.142857)" sketch:type="MSShapeGroup">
				<path id="Fill-2" fill="#2581B7" d="M0.85,84.644c0,46.51,37.729,84.213,84.268,84.213c46.529,0,84.258-37.703,84.258-84.213
					c0-46.507-37.729-84.21-84.258-84.21H0.85V84.644z"/>
				<path id="Fill-4" fill="#FFFFFF" d="M8.099,84.644c0,42.509,34.483,76.969,77.019,76.969c42.525,0,77.01-34.46,77.01-76.969
					c0-42.506-34.484-76.966-77.01-76.966H8.099V84.644z"/>
			</g>
			<g id="Group-296" transform="translate(65.333333, 54.034286)" sketch:type="MSShapeGroup">
				<path id="Fill-7" fill="#FFFFFF" d="M59.298,1.711c2.229,0.999,3.881,2.227,3.694,5.465c-0.184,3.24-0.08,8.281-4.277,9.203
					c-1.271,0.279-6.232,0.624-7.996-0.736c-1.88-1.45-4.639-4.297-6.002-4.374c-1.365-0.078-2.596,2.951-3.249,4.528
					c-1.004,2.423-5.337,3.298-7.03,3.532c-2.366,0.324-4.792-0.129-6.988-3.671c-1.783-2.873-1.515-6.93,0.001-9.175
					c1.748-2.588,7.645-4.733,17.169-5.746C52.838-0.138,56.901,0.637,59.298,1.711"/>
				<path id="Fill-9" fill="#9EBEBC" d="M24.606,93.1c0,0,13.807,1.419,21.775,0.164c8.565-1.35,18.598-4.43,18.598-4.43V78.001
					H24.606V93.1z"/>
				<path id="Fill-11" fill="#D9D9D8" d="M44.932,103.391c-14.115,0-25.557,2.946-25.557,6.58s11.442,6.58,25.557,6.58
					c14.116,0,25.559-2.946,25.559-6.58S59.048,103.391,44.932,103.391"/>
				<path id="Fill-13" fill="#F26E26" d="M48.713,81.8v26.131c0,0,7.179,3.107,9.322,3.612c4.27,1.004,5.921-2.74,3.737-3.177
					c-2.183-0.436-8.693-2.777-8.693-2.777V82.913L48.713,81.8z"/>
				<path id="Fill-15" fill="#F26E26" d="M40.803,83.786v24.144c0,0-7.778,3.338-9.939,3.764c-3.817,0.753-5.304-2.89-3.121-3.327
					c2.183-0.437,8.694-2.777,8.694-2.777V82.913L40.803,83.786z"/>
				<path id="Fill-17" fill="#F26E26" d="M81.463,63.136c-2.177,9.287-7.694,18.705-21.296,17.107c0,0,0.083-17.761,0.083-17.783
					c0.003-0.881,2.401-2.419,2.987-2.812c1.215-0.816,2.561-1.434,3.964-1.852c1.784-0.531,3.673-0.449,5.501-0.782"/>
				<path id="Fill-19" fill="#D75C27" d="M78.899,62.246c-3.148,6.255-8.764,10.981-18.693,9.828
					c-0.021,4.192-0.039,8.169-0.039,8.169c13.602,1.598,19.121-7.82,21.297-17.107"/>
				<path id="Fill-21" fill="#ECDDC9" d="M82.671,46.503c-0.027,3.838-2.168,6.967-5.451,8.824c-1.11,0.628-2.303,1.106-3.529,1.459
					c-0.381,0.109-0.769,0.187-1.157,0.252c0.642,1.439,2.718,4.6,8.917,6.148C83.425,54.8,82.671,46.503,82.671,46.503"/>
				<path id="Fill-23" fill="#E0D3C1" d="M82.811,50.204c0,0.097,0.002,0.194,0.002,0.295
					C82.813,50.398,82.811,50.301,82.811,50.204"/>
				<path id="Fill-25" fill="#E0D3C1" d="M82.807,49.727c0.002,0.074,0.002,0.149,0.002,0.225
					C82.809,49.877,82.809,49.802,82.807,49.727"/>
				<path id="Fill-27" fill="#E0D3C1" d="M82.811,50.704c0,0.12,0,0.24-0.002,0.364C82.811,50.944,82.811,50.824,82.811,50.704"/>
				<path id="Fill-29" fill="#E0D3C1" d="M82.791,48.862c0.001,0.026,0.001,0.053,0.002,0.078
					C82.792,48.915,82.792,48.889,82.791,48.862"/>
				<path id="Fill-31" fill="#E0D3C1" d="M0,0"/>
				<path id="Fill-33" fill="#E0D3C1" d="M82.8,49.28c0.001,0.051,0.002,0.102,0.003,0.152C82.802,49.382,82.801,49.331,82.8,49.28"
					/>
				<path id="Fill-35" fill="#E0D3C1" d="M82.808,51.232c-0.001,0.141-0.003,0.283-0.006,0.429
					C82.805,51.516,82.807,51.373,82.808,51.232"/>
				<path id="Fill-37" fill="#E0D3C1" d="M82.799,51.78c-0.004,0.164-0.007,0.331-0.012,0.501
					C82.793,52.111,82.796,51.944,82.799,51.78"/>
				<path id="Fill-39" fill="#E0D3C1" d="M82.786,52.339c-0.006,0.19-0.011,0.383-0.02,0.578
					C82.775,52.722,82.78,52.529,82.786,52.339"/>
				<path id="Fill-41" fill="#E0D3C1" d="M82.659,46.761c-0.021,0.312-0.047,0.629-0.074,0.951
					c-0.002,0.014-0.003,0.028-0.004,0.043c0.045-0.339,0.072-0.684,0.081-1.037C82.662,46.733,82.661,46.747,82.659,46.761"/>
				<path id="Fill-43" fill="#E0D3C1" d="M82.671,46.511c0-0.001,0-0.008,0-0.008c0,0.088-0.009,0.172-0.011,0.258
					c0.001-0.015,0.001-0.028,0.002-0.041C82.665,46.649,82.671,46.581,82.671,46.511"/>
				<path id="Fill-45" fill="#E0D3C1" d="M82.793,48.94c0.003,0.109,0.006,0.224,0.008,0.34
					C82.798,49.164,82.796,49.05,82.793,48.94"/>
				<path id="Fill-47" fill="#E0D3C1" d="M82.803,49.433c0.001,0.096,0.003,0.194,0.004,0.294
					C82.806,49.628,82.804,49.529,82.803,49.433"/>
				<path id="Fill-49" fill="#E0D3C1" d="M82.788,52.28c0,0.02-0.001,0.04-0.002,0.059C82.787,52.32,82.788,52.3,82.788,52.28"/>
				<path id="Fill-51" fill="#E0D3C1" d="M82.767,52.921v-0.004V52.921"/>
				<path id="Fill-53" fill="#E0D3C1" d="M82.779,48.476c0.005,0.124,0.008,0.253,0.011,0.386
					C82.787,48.728,82.784,48.6,82.779,48.476"/>
				<path id="Fill-55" fill="#E0D3C1" d="M82.809,49.953c0.002,0.082,0.002,0.167,0.002,0.251
					C82.811,50.12,82.811,50.035,82.809,49.953"/>
				<path id="Fill-57" fill="#E0D3C1" d="M82.801,51.661c0,0.039,0,0.079-0.002,0.119C82.801,51.74,82.801,51.7,82.801,51.661"/>
				<path id="Fill-59" fill="#E0D3C1" d="M82.81,51.068c0,0.054-0.001,0.109-0.003,0.163C82.809,51.178,82.81,51.122,82.81,51.068"
					/>
				<path id="Fill-61" fill="#E0D3C1" d="M82.779,48.475c-0.042-1.241-0.108-1.972-0.108-1.972v0.007
					c0,0.004,0.002,0.012,0.002,0.031C82.686,46.7,82.742,47.391,82.779,48.475"/>
				<path id="Fill-63" fill="#E0D3C1" d="M82.812,50.499v0.205V50.499"/>
				<path id="Fill-65" fill="#E0D3C1" d="M82.786,52.339c0.002-0.02,0.002-0.039,0.002-0.059c0.005-0.17,0.008-0.336,0.012-0.5
					c0.002-0.039,0.002-0.08,0.002-0.119c0.003-0.145,0.005-0.288,0.008-0.429c0-0.056,0-0.11,0-0.165
					c0.002-0.123,0.003-0.244,0.003-0.364v-0.204v-0.296c-0.001-0.084-0.001-0.169-0.003-0.251c0-0.076,0-0.15-0.002-0.225
					c-0.001-0.1-0.002-0.198-0.004-0.294c-0.002-0.052-0.002-0.103-0.002-0.153c-0.003-0.115-0.006-0.23-0.009-0.34
					c-0.001-0.025-0.001-0.052-0.002-0.078c-0.003-0.133-0.008-0.264-0.011-0.386l0,0c-0.037-1.084-0.093-1.776-0.106-1.935
					c-0.003,0.059-0.008,0.117-0.011,0.176c-0.011,0.353-0.037,0.698-0.082,1.037c-0.393,4.543-1.39,9.992-3.736,14.596
					c0.779,0.309,1.636,0.594,2.605,0.836c0.864-3.668,1.205-7.32,1.316-10.266v-0.004C82.775,52.722,82.78,52.529,82.786,52.339"/>
				<path id="Fill-67" fill="#E0D3C1" d="M82.673,46.542c-0.001-0.02-0.002-0.026-0.002-0.031c-0.001,0.07-0.007,0.138-0.009,0.207
					C82.666,46.659,82.671,46.601,82.673,46.542"/>
				<path id="Fill-69" fill="#F26E26" d="M24.606,0.555v44.988h40.373V0.555l-5.365,4.667H30.38L24.606,0.555z"/>
				<path id="Fill-71" fill="#ECDDC9" d="M64.979,13.09v18.059l-15.278,4.975C50.528,14.838,62.517,13.2,64.979,13.09"/>
				<path id="Fill-73" fill="#ECDDC9" d="M0,0"/>
				<path id="Fill-75" fill="#ECDDC9" d="M34.849,17.307c12.115,8.491,10.519,18.835,10.519,18.835l-20.762-4.85V13.09
					C24.606,13.09,30.414,14.199,34.849,17.307"/>
				<path id="Fill-77" fill="#272724" d="M35.442,24.678c0.62,0.613,0.625,1.612,0.011,2.231c-0.613,0.618-1.612,0.623-2.231,0.01
					c-0.62-0.614-0.624-1.612-0.01-2.231C33.824,24.068,34.824,24.064,35.442,24.678"/>
				<path id="Fill-79" fill="#272724" d="M59.952,24.565c0.619,0.612,0.624,1.612,0.01,2.231c-0.612,0.618-1.613,0.623-2.23,0.01
					c-0.62-0.613-0.625-1.612-0.011-2.231C58.333,23.956,59.333,23.952,59.952,24.565"/>
				<path id="Fill-81" fill="#272724" d="M45.369,36.142c0,0,0.056-1.694-0.629-4.3l5.306-0.019
					c-0.166,1.337-0.286,2.766-0.346,4.299"/>
				<path id="Fill-83" fill="#333330" d="M44.739,31.842l5.307-0.019c-0.055,0.435-0.101,0.882-0.145,1.336l-4.855,0.017
					C44.965,32.765,44.864,32.319,44.739,31.842"/>
				<path id="Fill-85" fill="#E0D3C1" d="M64.979,13.099v2.274c-3.818,0.509-13.621,3.499-15.104,20.712l-0.143,0.047
					C50.561,14.848,62.517,13.21,64.979,13.099"/>
				<path id="Fill-87" fill="#E0D3C1" d="M24.623,13.099l-0.017,2.274c5.279,0.509,18.791,3.499,20.842,20.712l0.197,0.047
					C44.501,14.848,28.028,13.21,24.623,13.099"/>
				<path id="Fill-89" fill="#BAD6D5" d="M24.606,32.914v59.571c4.026,0,19.588-4.629,23.506-9.572
					c3.916,4.003,13.819,6.158,16.866,5.922V33.149l-16.866,9.808L24.606,32.914z"/>
				<path id="Fill-91" fill="#F26E26" d="M78.411,29.285c0.338,0.835,0.474,1.696,0.266,2.538c-0.428,1.729-3.332,3.469-3.332,3.469
					s0.533,2.753,1.947,4.401c2.943-1.824,5.244-3.458,5.863-6.348c0.268-1.25,0.23-2.649-0.122-4.184
					C81.508,29.228,79.952,29.221,78.411,29.285"/>
				<path id="Fill-93" fill="#BAD6D5" d="M64.979,38.064c0,0,5.301,0.706,10.365-3.885c1.297,1.766,2.652,4.062,2.946,6.122
					c-4.359,2.59-7.397,3.504-13.312,3.768V38.064z"/>
				<path id="Fill-95" fill="#9BBBB9" d="M48.112,42.957c0,0,2.176,3.565,3.218,8.112c8.218-8.08,11.493-13.74,13.649-17.92
					C60.703,35.635,48.112,42.957,48.112,42.957"/>
				<path id="Fill-97" fill="#CBE4E2" d="M48.112,42.957c0,0,2.734,1.53,3.776,6.076c5.704-5.979,10.821-11.577,13.091-15.884
					C60.703,35.635,48.112,42.957,48.112,42.957"/>
				<path id="Fill-99" fill="#575757" d="M62.995,7.182c0.734,0.042,1.236,0.086,1.977,0.531c0.128,0.071,0.349,0.251,0.349,0.562
					c0,1.142,0.035,2.497,0.038,3.248c0.002,0.312-0.376,0.531-0.376,0.531s-1.804-0.586-2.349-0.586
					C62.934,9.353,62.979,7.641,62.995,7.182"/>
				<path id="Fill-101" fill="#8BD3DF" d="M30.38,5.222l-0.776-0.628c-0.982,0.593-1.705,1.226-2.152,1.888
					c-1.516,2.246-1.784,6.303-0.001,9.176c2.197,3.542,4.623,3.995,6.989,3.671c1.693-0.233,6.026-1.108,7.029-3.531
					c0.654-1.577,1.884-4.606,3.25-4.529c1.365,0.078,4.122,2.925,6.002,4.375c1.764,1.36,6.725,1.016,7.996,0.736
					c4.197-0.922,4.093-5.963,4.277-9.203c0.105-1.812-0.367-2.993-1.191-3.858l-2.188,1.904H30.38z"/>
				<path id="Fill-103" fill="#D6EEF3" d="M30.38,5.222h29.233l2.188-1.904c-0.65-0.682-1.52-1.167-2.503-1.607
					c-2.397-1.074-6.462-1.849-14.678-0.975C37.532,1.49,32.458,2.87,29.603,4.594L30.38,5.222z"/>
				<path id="Fill-105" fill="#8BD3DF" d="M62.84,5.218c-0.16,3.159-0.516,7.174-4.218,7.988c-1.271,0.279-6.231,0.623-7.995-0.737
					c-1.881-1.449-4.638-4.296-6.003-4.374c-1.365-0.079-2.595,2.951-3.249,4.529c-1.004,2.421-5.336,3.298-7.03,3.53
					c-2.365,0.325-4.792-0.128-6.988-3.67c-0.527-0.85-0.87-1.854-1.053-2.902c-0.228,2.066,0.092,4.375,1.146,6.075
					c2.197,3.542,4.623,3.995,6.989,3.67c1.693-0.232,6.026-1.109,7.03-3.53c0.653-1.578,1.884-4.607,3.249-4.529
					c1.364,0.078,4.122,2.925,6.003,4.374c1.764,1.36,6.725,1.017,7.995,0.737c4.198-0.923,4.093-5.964,4.278-9.203
					C63.039,6.421,62.981,5.777,62.84,5.218"/>
				<path id="Fill-107" fill="#7CBEBE" d="M27.529,12.662c0,0,1.869,3.19,4.882,3.194c1.87,0.001,5.053-1.143,5.75-1.428
					c3.557-1.456,4.49-4.635,4.49-4.635s-0.873,4.175-3.426,5.225c-1.006,0.415-4.753,2.15-7.451,1.668
					C29.214,16.229,27.843,13.525,27.529,12.662"/>
				<path id="Fill-109" fill="#7CBEBE" d="M62.278,8.468c0,0-0.316,3.332-2.798,4.087c-2.272,0.691-5.802,0.393-6.507,0.285
					c-3.6-0.552-5.955-3.409-5.955-3.409s1.414,2.885,5.523,4.195c0.988,0.315,5.541,0.701,7.549-0.284
					C62.184,12.316,62.223,9.376,62.278,8.468"/>
				<path id="Fill-111" fill="#7CBEBE" d="M61.509,13.984c-1.165,1.702-2.796,1.906-4.402,2.154
					c-1.134,0.175-3.291,0.271-5.421-0.396c-0.727-0.229-2.574-1.52-2.917-1.924c-0.343-0.404-2.735-3.165-4.093-2.955
					c-0.806,0.126-1.734,1.034-2.254,1.861c-0.729,1.157-1.661,3.673-2.88,4.574c-1.954,1.443-4.215,1.938-6.274,1.959
					c-2.554,0.026-4.855-2.254-4.855-2.254c0.411,0.839,2.386,3.091,4.65,3.094c3.464,0.006,5.55-0.691,7.301-2.146
					c1.174-0.975,1.849-3.704,2.681-4.798c0.361-0.476,1.135-1.621,1.697-1.704c0.619-0.091,1.85,1.02,2.275,1.515
					c0.56,0.653,1.232,1.637,2.553,2.778c0.416,0.36,2.103,1.252,3.33,1.462c2.432,0.417,5.604-0.155,6.631-0.436
					s1.729-1.274,2.211-2.085c0.376-0.631,0.717-1.804,0.778-3.111C62.278,12.551,62.217,12.95,61.509,13.984"/>
				<path id="Fill-113" fill="#8BD3DF" d="M60.972,4.54c-0.074-0.099-0.159-0.193-0.248-0.286l-0.081,0.071
					C60.747,4.392,60.855,4.463,60.972,4.54"/>
				<path id="Fill-115" fill="#8BD3DF" d="M29.246,7.422c0.989-0.566,3.457-1.52,6.127-2.201h-3.228
					c-1.025,0.351-2.002,0.77-2.722,1.264c-1.248,0.859-2.078,2.593-2.078,2.593S28.007,8.131,29.246,7.422"/>
				<path id="Fill-117" fill="#BEE5EC" d="M60.724,4.255c-0.687-0.706-1.771-1.204-2.607-1.461
					c-0.946-0.292-4.136-0.599-8.491-0.385c-4.721,0.232-11.104,1.251-12.414,1.527c-0.867,0.183-3.062,0.601-5.065,1.286h3.227
					c0.674-0.172,1.359-0.328,2.038-0.454c3.372-0.628,9.692-1.445,12.263-1.555c3.005-0.127,5.943-0.121,8.267,0.206
					c1.426,0.199,1.921,0.405,2.702,0.905L60.724,4.255z"/>
				<path id="Fill-119" fill="#575757" d="M26.226,11.137l-1.645,0.331c0,0-0.41,0.111-0.41,0.528v4.036
					c0,0.281,0.41,0.422,0.41,0.422s1.071-0.586,2.869-0.796C26.714,14.041,26.439,13.579,26.226,11.137"/>
				<path id="Fill-121" fill="#CBE4E2" d="M48.112,42.957v39.956c0,0-10.24,10.188-23.507,10.188V32.914L48.112,42.957z"/>
				<path id="Fill-123" fill="#9BBBB9" d="M24.606,32.914l23.506,10.043c0,0-2.261,3.565-3.373,8.112
					C36.47,46.905,27.423,37.271,24.606,32.914"/>
				<path id="Fill-125" fill="#BAD6D5" d="M41.725,54.845l4.732,2.17L35.917,88.873L24.606,81.8v-8.912L41.725,54.845z"/>
				<path id="Fill-127" fill="#DEEEEC" d="M24.606,32.914l23.506,10.043c0,0-2.678,1.977-3.789,6.523
					C35.878,44.323,27.036,35.875,24.606,32.914"/>
				<path id="Fill-129" fill="#9BBBB9" d="M64.979,42.409c0,0,3.232,1.085,10.223-0.463c-3.896,2.122-10.223,2.122-10.223,2.122
					V42.409z"/>
				<path id="Fill-131" fill="#9BBBB9" d="M52.07,54.616l9.825-0.736v1.611l-9.825,0.963V54.616z"/>
				<path id="Fill-133" fill="#CBE4E2" d="M52.07,54.616c0,0,5.771,0.736,9.825-0.736v10.555c0,1.269-1.97,3.185-4.171,3.379
					c-3.12,0.279-5.654-1.107-5.654-3.011V54.616z"/>
				<path id="Fill-135" fill="#7CBEBE" d="M73.727,43.635l2.928-36.499l-5.771-0.462l-2.929,36.499l0,0l0,0l-0.021,0.256
					l0.013,0.001c0.013,1.483,1.155,2.737,2.661,2.858c1.508,0.121,2.837-0.936,3.085-2.397l0.014,0.001L73.727,43.635
					L73.727,43.635L73.727,43.635z"/>
				<path id="Fill-137" fill="#FFFFFF" d="M71.694,7.271l-2.078,25.898l0.009,0.001c0.009,1.045,0.814,1.928,1.876,2.013
					c1.062,0.086,1.998-0.658,2.172-1.688l0.01,0.001L75.76,7.598L71.694,7.271z"/>
				<path id="Fill-139" fill="#8AC5C3" d="M73.868,5.739c-1.664-0.133-2.738,0.156-3.111,0.969c-0.139,0.305-0.158,0.704-0.077,0.97
					c0.2,0.656,1.253,1.319,2.916,1.452c1.665,0.134,2.726-0.312,3.111-0.969c0.149-0.255,0.224-0.634,0.077-0.97
					C76.454,6.427,75.533,5.871,73.868,5.739"/>
				<path id="Fill-141" fill="#934E9D" d="M70.872,17.511l-2.078,25.898l0.01,0.001c0.008,1.045,0.814,1.928,1.875,2.013
					c1.062,0.085,1.998-0.659,2.173-1.689l0.009,0.001l2.104-26.174L70.872,17.511z"/>
				<path id="Fill-143" fill="#B4E0DE" d="M71.999,7.35c0.332,0.269,0.974,0.484,1.728,0.545c0.751,0.061,1.419-0.049,1.791-0.262
					c-0.333-0.269-0.976-0.484-1.728-0.545C73.038,7.029,72.37,7.138,71.999,7.35"/>
				<path id="Fill-145" fill="#A465A8" d="M74.895,17.727c-0.277,0.454-1.39,0.746-2.485,0.655
					c-1.095-0.091-1.757-0.533-1.479-0.987c0.277-0.454,1.391-0.746,2.485-0.655C74.51,16.832,75.174,17.273,74.895,17.727"/>
				<g id="Group-177" transform="translate(67.586207, 9.005714)">
					<path id="Fill-147" fill="#FFFFFF" d="M5.465,3.596C4.498,3.515,3.658,3.261,3.139,2.933L3.073,3.738
						c0.52,0.329,1.359,0.582,2.326,0.663L5.465,3.596z"/>
					<path id="Fill-149" fill="#FFFFFF" d="M5.645,1.414C4.678,1.333,3.836,1.079,3.319,0.751L3.252,1.557
						c0.52,0.329,1.359,0.582,2.326,0.663L5.645,1.414z"/>
					<path id="Fill-151" fill="#FFFFFF" d="M5.286,5.778C4.32,5.697,3.479,5.443,2.959,5.115L2.893,5.921
						c0.52,0.329,1.36,0.582,2.326,0.663L5.286,5.778z"/>
					<path id="Fill-153" fill="#FFFFFF" d="M5.107,7.96C4.141,7.879,3.299,7.626,2.781,7.297L2.714,8.103
						c0.52,0.329,1.359,0.582,2.326,0.663L5.107,7.96z"/>
					<path id="Fill-155" fill="#FFFFFF" d="M4.928,10.142C3.961,10.061,3.12,9.808,2.602,9.479l-0.066,0.806
						c0.519,0.329,1.359,0.582,2.326,0.663L4.928,10.142z"/>
					<path id="Fill-157" fill="#FFFFFF" d="M4.748,12.324c-0.967-0.081-1.809-0.334-2.326-0.663l-0.066,0.806
						c0.52,0.329,1.359,0.582,2.326,0.663L4.748,12.324z"/>
					<path id="Fill-159" fill="#FFFFFF" d="M4.569,14.506c-0.967-0.081-1.808-0.334-2.326-0.663l-0.066,0.806
						c0.52,0.329,1.359,0.582,2.326,0.663L4.569,14.506z"/>
					<path id="Fill-161" fill="#FFFFFF" d="M4.389,16.689c-0.966-0.081-1.807-0.334-2.325-0.663l-0.067,0.806
						c0.52,0.329,1.36,0.582,2.326,0.663L4.389,16.689z"/>
					<path id="Fill-163" fill="#FFFFFF" d="M4.21,18.871c-0.966-0.081-1.808-0.334-2.326-0.663l-0.066,0.806
						c0.52,0.329,1.36,0.582,2.326,0.663L4.21,18.871z"/>
					<path id="Fill-165" fill="#FFFFFF" d="M3.672,25.417c-0.966-0.081-1.808-0.334-2.326-0.663L1.28,25.56
						c0.52,0.329,1.36,0.582,2.326,0.663L3.672,25.417z"/>
					<path id="Fill-167" fill="#FFFFFF" d="M3.494,27.599c-0.967-0.081-1.808-0.334-2.326-0.663l-0.066,0.806
						c0.519,0.329,1.359,0.582,2.326,0.663L3.494,27.599z"/>
					<path id="Fill-169" fill="#FFFFFF" d="M3.315,29.781c-0.967-0.081-1.809-0.334-2.326-0.663l-0.066,0.806
						c0.519,0.329,1.359,0.582,2.326,0.663L3.315,29.781z"/>
					<path id="Fill-171" fill="#FFFFFF" d="M3.135,31.963c-0.967-0.081-1.809-0.334-2.326-0.663l-0.066,0.806
						c0.52,0.329,1.359,0.582,2.326,0.663L3.135,31.963z"/>
					<path id="Fill-173" fill="#FFFFFF" d="M4.032,21.053c-0.967-0.081-1.809-0.334-2.326-0.663l-0.066,0.806
						c0.52,0.329,1.359,0.582,2.326,0.663L4.032,21.053z"/>
					<path id="Fill-175" fill="#FFFFFF" d="M3.852,23.235c-0.967-0.081-1.809-0.334-2.326-0.663l-0.066,0.806
						c0.52,0.329,1.359,0.582,2.326,0.663L3.852,23.235z"/>
				</g>
				<path id="Fill-178" fill="#9FD7D4" d="M76.758,7.191c-0.33-0.764-1.252-1.319-2.916-1.452c-1.665-0.134-2.738,0.156-3.111,0.969
					c-0.141,0.304-0.159,0.704-0.078,0.969c0.201,0.656,1.253,1.319,2.916,1.453c1.666,0.133,2.726-0.313,3.111-0.97
					C76.831,7.906,76.904,7.527,76.758,7.191"/>
				<path id="Fill-180" fill="#B1853F" d="M75.807,7.172c0,0-0.09,1.082-0.146,1.772C73.556,9.59,71.587,8.62,71.587,8.62
					l0.146-1.813L75.807,7.172z"/>
				<path id="Fill-182" fill="#926A2D" d="M71.608,5.431l0.135,1.352c0,0-0.133,0.827,1.92,1c2.053,0.173,2.178-0.678,2.178-0.678
					l0.402-1.25L71.608,5.431z"/>
				<path id="Fill-184" fill="#B1853F" d="M76.264,5.754c-0.047,0.505-1.127,0.825-2.412,0.714s-2.287-0.611-2.24-1.117
					c0.049-0.505,1.128-0.825,2.414-0.714C75.309,4.748,76.312,5.248,76.264,5.754"/>
				<path id="Fill-186" fill="#F26E26" d="M80.526,23.341c-2.236-3.698-5.167-4.335-6.241-3.878
					c-1.518,0.646-1.752,3.15-0.589,4.238c0.811,0.759,3.691,3.051,4.714,5.583c1.542-0.064,3.099-0.056,4.622-0.123
					C82.628,27.398,81.803,25.454,80.526,23.341"/>
				<path id="Fill-188" fill="#ECDDC9" d="M80.526,23.341c-2.236-3.698-5.167-4.335-6.241-3.878
					c-1.518,0.646-1.752,3.15-0.589,4.238c0.543,0.508,2.012,1.702,3.231,3.196c1.429-0.425,3.089-1.27,3.952-2.952
					C80.765,23.745,80.649,23.545,80.526,23.341"/>
				<path id="Fill-190" fill="#E0D3C1" d="M74.375,20.075c0,0,1.192-0.404,2.686,0.537c1.509,0.95,2.896,2.636,3.554,3.788
					c-0.238,0.38-0.41,0.569-0.786,0.926c-0.476-0.624-2.44-3.315-3.608-4.085C75.243,20.598,74.819,20.153,74.375,20.075"/>
				<path id="Fill-192" fill="#5D98C5" d="M8.059,38.064L0.104,66.505L35.06,87.093L45.546,54.6L8.059,38.064z"/>
				<path id="Fill-194" fill="#9BB9D9" d="M12.777,44.284l-0.421,1.264l1.106,0.474l0.475-1.211L12.777,44.284z"/>
				<path id="Fill-196" fill="#9BB9D9" d="M8.718,42.282l-0.316,1.211l3.374,1.686l0.316-1.264L8.718,42.282z"/>
				<path id="Fill-198" fill="#9BB9D9" d="M9.245,40.175l-0.369,1.423l7.223,3.477l0.474-1.581L9.245,40.175z"/>
				<path id="Fill-200" fill="#9BB9D9" d="M14.32,50.299c-0.183,0.476-0.66,0.733-1.067,0.576c-0.407-0.156-0.587-0.667-0.404-1.143
					c0.183-0.475,0.66-0.732,1.066-0.576C14.322,49.312,14.502,49.823,14.32,50.299"/>
				<path id="Fill-202" fill="#9BB9D9" d="M28.618,58.124l-0.692-3.654c-0.222,0.144-0.47,0.221-0.72,0.213l0.696,3.681
					C28.121,58.212,28.368,58.127,28.618,58.124"/>
				<path id="Fill-204" fill="#9BB9D9" d="M21.404,57.505c-0.067-0.23-0.084-0.486-0.033-0.746L17.8,57.007
					c0.043,0.238,0.026,0.496-0.051,0.752L21.404,57.505z"/>
				<path id="Fill-206" fill="#9BB9D9" d="M35.644,55.614c-0.202,0.178-0.44,0.289-0.686,0.326l2.136,7.874
					c0.205-0.176,0.441-0.288,0.688-0.324L35.644,55.614z"/>
				<path id="Fill-208" fill="#9BB9D9" d="M14.407,51.022c-0.186,0.195-0.41,0.332-0.649,0.396l1.898,5.061
					c0.179-0.207,0.401-0.354,0.636-0.432L14.407,51.022z"/>
				<path id="Fill-210" fill="#9BB9D9" d="M26.112,53.7l-2.531,2.14c0.171,0.188,0.283,0.434,0.325,0.705l2.565-2.169
					C26.289,54.2,26.166,53.965,26.112,53.7"/>
				<path id="Fill-212" fill="#9BB9D9" d="M12.293,50.138l-4.281,2.277l0.352,0.659l4.114-2.188
					C12.354,50.669,12.289,50.411,12.293,50.138"/>
				<path id="Fill-214" fill="#9BB9D9" d="M33.703,55.111l-4.264,3.362c0.171,0.185,0.284,0.427,0.327,0.693l4.359-3.438
					C33.926,55.577,33.782,55.362,33.703,55.111"/>
				<path id="Fill-216" fill="#9BB9D9" d="M7.66,53.681C7.477,54.155,7,54.413,6.593,54.257s-0.587-0.668-0.404-1.143
					c0.183-0.476,0.66-0.733,1.067-0.576C7.662,52.694,7.842,53.205,7.66,53.681"/>
				<path id="Fill-218" fill="#9BB9D9" d="M38.608,65.128c-0.182,0.475-0.66,0.732-1.066,0.576s-0.587-0.668-0.404-1.143
					c0.182-0.475,0.66-0.732,1.066-0.576S38.791,64.653,38.608,65.128"/>
				<path id="Fill-220" fill="#9BB9D9" d="M35.636,54.831c-0.183,0.475-0.66,0.732-1.067,0.576s-0.587-0.668-0.404-1.143
					c0.182-0.475,0.66-0.732,1.066-0.576C35.638,53.845,35.819,54.355,35.636,54.831"/>
				<path id="Fill-222" fill="#9BB9D9" d="M29.192,59.928c-0.183,0.476-0.66,0.733-1.067,0.577
					c-0.406-0.157-0.587-0.668-0.404-1.143c0.183-0.476,0.66-0.733,1.067-0.577C29.194,58.942,29.374,59.452,29.192,59.928"/>
				<path id="Fill-224" fill="#9BB9D9" d="M28.027,53.563c-0.182,0.475-0.66,0.732-1.066,0.576s-0.587-0.667-0.404-1.143
					c0.182-0.475,0.66-0.732,1.066-0.576S28.209,53.089,28.027,53.563"/>
				<path id="Fill-226" fill="#9BB9D9" d="M23.367,57.25c-0.183,0.476-0.66,0.733-1.067,0.577c-0.406-0.157-0.586-0.668-0.404-1.143
					c0.183-0.476,0.66-0.733,1.067-0.577C23.369,56.265,23.549,56.775,23.367,57.25"/>
				<path id="Fill-228" fill="#9BB9D9" d="M17.232,57.677c-0.183,0.476-0.66,0.733-1.067,0.576
					c-0.406-0.156-0.586-0.667-0.404-1.143c0.183-0.475,0.66-0.732,1.067-0.576S17.414,57.202,17.232,57.677"/>
				<path id="Fill-230" fill="#9BB9D9" d="M22.494,78.076l2.109,1.335l0.617-1.423l-2.319-1.546L22.494,78.076z"/>
				<path id="Fill-232" fill="#9BB9D9" d="M19.213,76.269l2.108,1.335l2.425-6.709l-2.319-1.546L19.213,76.269z"/>
				<path id="Fill-234" fill="#9BB9D9" d="M15.839,74.267l2.109,1.335l1.477-4.075l-2.32-1.546L15.839,74.267z"/>
				<path id="Fill-236" fill="#9BB9D9" d="M12.535,72.229l2.108,1.336l0.985-2.6l-2.321-1.545L12.535,72.229z"/>
				<path id="Fill-238" fill="#9BB9D9" d="M9.232,69.982l2.108,1.335l2.109-6.533l-2.319-1.546L9.232,69.982z"/>
				<path id="Fill-240" fill="#9BB9D9" d="M5.857,67.875l2.109,1.335l2.531-8.008l-2.321-1.547L5.857,67.875z"/>
				<path id="Fill-242" fill="#9BB9D9" d="M2.694,65.907l2.109,1.336l1.546-4.777L4.03,60.92L2.694,65.907z"/>
				<path id="Fill-244" fill="#9BB9D9" d="M29.818,80.811c-0.802-0.293-1.424-0.937-1.753-1.816
					c-0.335-0.898-0.325-1.93,0.031-2.905c0.567-1.554,1.883-2.577,3.23-2.662l-0.482,3.882c0,0,1.811,0.006,3.576-0.031
					c-0.04,0.342-0.117,0.688-0.242,1.029C33.45,80.3,31.494,81.423,29.818,80.811 M32.711,72.886
					c-2.063-0.754-4.449,0.57-5.318,2.949c-0.417,1.141-0.427,2.357-0.028,3.423c0.405,1.085,1.186,1.887,2.196,2.255
					c0.439,0.161,0.895,0.227,1.345,0.208c1.666-0.067,3.289-1.285,3.972-3.157C35.747,76.184,34.775,73.638,32.711,72.886"/>
				<path id="Fill-246" fill="#9BB9D9" d="M4.712,56.19l32.527,17.861l0.422-1.055L5.081,55.243L4.712,56.19z"/>
				<path id="Fill-248" fill="#9BB9D9" d="M24.57,60.88l-1.019,3.053l9.574,5.429l1.29-3.054l-6.382-3.664l-0.136-1.496l-0.882,1.09
					L24.57,60.88z"/>
				<path id="Fill-250" fill="#518FB7" d="M16.764,48.431c0,0-3.249,6.155-3.77,11.891c-0.247,2.72-0.471,7.416,0.708,8.947
					s4.657,1.404,4.421-2.011c-0.236-3.414-0.335-4.357-0.099-7.771c0.101-1.462,0.965-4.521,1.821-7.183
					c0.309,0.037,0.741,0.218,0.741,0.218s2.056-4.885,3.289-6.654C22.697,45.16,16.764,48.431,16.764,48.431"/>
				<path id="Fill-252" fill="#926A2D" d="M24.606,33.982c0,0,4.764,10.855,17.158,16.133c-0.178,1.138,0.13,1.124-0.28,2.152
					c-8.084-4.073-13.168-7.11-16.877-15.497V33.982z"/>
				<path id="Fill-254" fill="#926A2D" d="M64.979,35.23c0,0-4.146,11.193-9.509,15.2c0.114,1.109,0.021,1.389,0.284,2.392
					c3.881-3.116,6.837-6.64,9.225-14.826V35.23z"/>
				<path id="Fill-256" fill="#5E5E5E" d="M57.1,58.022c0,0-0.472-0.066-1.131-0.145l-0.942-6.031c0,0-2.323-0.407-3.106-0.402
					c-0.543,0.003-1.881,0.227-2.52,0.34c-1.484-0.113-4.501-0.337-5.043-0.34c-0.783-0.005-3.106,0.402-3.106,0.402l-0.942,6.031
					c-0.66,0.078-1.131,0.145-1.131,0.145L37.44,69.972c0,0,2.104,1.074,5.158,1.074c1.883,0,4.709-0.764,5.924-1.12v0.046
					c0,0,2.703,1.074,5.158,1.074c3.053,0,5.158-1.074,5.158-1.074L57.1,58.022z"/>
				<path id="Fill-258" fill="#575757" d="M46.471,49.458H42.03l0.342-3.284c0,0,0.994-0.295,2.284-0.295
					c0.464,0,1.815,0.381,1.815,0.381V49.458z"/>
				<path id="Fill-260" fill="#62706F" d="M47.311,56.141h-7.479l1.104-7.065c0,0,2.479-0.434,3.313-0.429
					c0.772,0.004,3.062,0.429,3.062,0.429V56.141z"/>
				<path id="Fill-262" fill="#738180" d="M41.581,49.458l-0.953,7.438l1.4-0.334l0.98-7.277
					C43.008,49.284,42.818,49.062,41.581,49.458"/>
				<path id="Fill-264" fill="#62706F" d="M47.873,68.409c0,0-2.883,1.146-5.501,1.146c-3.258,0-5.501-1.146-5.501-1.146
					l1.853-12.745c0,0,3.066-0.43,4.643-0.43c2.002,0,4.507,0.43,4.507,0.43V68.409z"/>
				<path id="Fill-266" fill="#C6E6F9" d="M38.495,68.074c0,0,2.712-0.229,3.619-0.231c1.008-0.002,4.021,0.231,4.021,0.231
					s-1.49,0.723-4.062,0.723C39.798,68.797,38.495,68.074,38.495,68.074"/>
				<path id="Fill-268" fill="#738180" d="M39.377,56.378l-1.586,11.051l2.454-0.407l1.334-10.853
					C41.579,56.169,40.518,56.124,39.377,56.378"/>
				<path id="Fill-270" fill="#575757" d="M50.093,49.458h4.442l-0.344-3.284c0,0-0.994-0.295-2.283-0.295
					c-0.463,0-1.815,0.381-1.815,0.381V49.458z"/>
				<path id="Fill-272" fill="#62706F" d="M49.253,56.141h7.48l-1.104-7.065c0,0-2.478-0.434-3.313-0.429
					c-0.773,0.004-3.062,0.429-3.062,0.429V56.141z"/>
				<path id="Fill-274" fill="#738180" d="M50.135,49.447v6.312c0,0,0.832-0.202,1.398-0.202c0-0.579-0.244-6.312-0.244-6.312
					S50.671,49.187,50.135,49.447"/>
				<path id="Fill-276" fill="#3F4040" d="M50.712,54.534h-4.736l0.568,0.616h3.623L50.712,54.534z"/>
				<path id="Fill-278" fill="#575757" d="M50.712,54.534h-4.736l0.191-4.096h4.369L50.712,54.534z"/>
				<path id="Fill-280" fill="#62706F" d="M48.692,68.409c0,0,2.883,1.146,5.501,1.146c3.257,0,5.501-1.146,5.501-1.146
					L57.84,55.664c0,0-3.066-0.43-4.643-0.43c-2.001,0-4.506,0.43-4.506,0.43V68.409z"/>
				<path id="Fill-282" fill="#738180" d="M49.695,56.509v10.699c0,0,1.557-0.344,2.62-0.344c0-0.98-0.459-10.698-0.459-10.698
					S50.698,56.067,49.695,56.509"/>
				<path id="Fill-284" fill="#C6E6F9" d="M50.579,68.074c0,0,2.712-0.229,3.619-0.231c1.008-0.002,4.021,0.231,4.021,0.231
					s-1.49,0.723-4.062,0.723C51.882,68.797,50.579,68.074,50.579,68.074"/>
				<path id="Fill-286" fill="#F26E26" d="M16.006,48.426c0,0-3.249,6.155-3.77,11.892c-0.247,2.719-0.471,7.416,0.708,8.947
					c1.178,1.53,4.657,1.403,4.421-2.012c-0.236-3.414-0.334-4.357-0.099-7.771s2.511-9.054,2.981-10.231
					C19.069,48.544,16.006,48.426,16.006,48.426"/>
				<path id="Fill-288" fill="#ECDDC9" d="M12.945,69.265c1.178,1.53,4.657,1.403,4.421-2.012c-0.098-1.421-0.172-2.415-0.208-3.337
					c0,0-2.219,0.391-2.85,0.396c-0.685,0.008-2.266-0.396-2.266-0.396C12.02,66.099,12.207,68.304,12.945,69.265"/>
				<path id="Fill-290" fill="#E0D3C1" d="M15.313,64.209c0,0,0.829,3.593-0.296,5.197c1.195-0.253,1.77-0.815,1.895-1.802
					c0.108-0.851-0.052-2.219-0.295-3.596C16.08,64.097,15.313,64.209,15.313,64.209"/>
				<path id="Fill-292" fill="#CBE4E2" d="M24.606,36.771c0,0-8.247,8.123-9.896,12.007c1.532,0.943,3.771,1.767,5.419,2.826
					c1.178-1.766,3.181-5.298,4.477-6.592V36.771z"/>
				<path id="Fill-294" fill="#B1853F" d="M73.52,9.13c-0.846-0.08-1.396-0.283-1.936-0.51l-0.048,0.613c0,0,1.97,0.971,4.074,0.324
					c0.017-0.2,0.027-0.394,0.046-0.624C75.048,9.122,74.415,9.216,73.52,9.13"/>
			</g>
		</g>
	</g>
</g>
<ellipse fill="#FFFFFF" cx="110" cy="110.334" rx="61.5" ry="69.167"/>
<path fill="#2581B7" d="M111.191,51.741c-33.959,0-61.488,27.538-61.488,61.5c0,33.959,27.529,61.489,61.488,61.489
	c33.962,0,61.492-27.53,61.492-61.489C172.684,79.279,145.153,51.741,111.191,51.741L111.191,51.741z M111.191,59.636
	c3.629,0,6.571,2.942,6.571,6.571c0,3.628-2.942,6.563-6.571,6.563c-3.625,0-6.571-2.935-6.571-6.563
	C104.62,62.578,107.566,59.636,111.191,59.636z M81.506,70.211c1.894,0.01,3.769,0.84,5.058,2.422
	c2.291,2.811,1.87,6.947-0.94,9.239c-2.814,2.296-6.946,1.871-9.238-0.94c-2.293-2.812-1.878-6.944,0.933-9.237
	C78.55,70.691,80.033,70.202,81.506,70.211z M141.237,70.691c1.576-0.058,3.176,0.45,4.479,1.545
	c2.774,2.338,3.133,6.479,0.793,9.253c-2.336,2.775-6.478,3.131-9.254,0.795c-2.772-2.338-3.132-6.477-0.792-9.253
	C137.705,71.557,139.455,70.76,141.237,70.691z M111.191,75.805l4.439,7.687h-3.668v17.386h-1.543V83.491h-3.665L111.191,75.805
	L111.191,75.805z M87.542,84.227l8.299,3.155l-2.844,2.314l10.979,13.464l-1.197,0.979L91.8,90.676l-2.844,2.315L87.542,84.227
	L87.542,84.227z M135.301,84.6l-1.551,8.751l-2.805-2.361l-11.195,13.288l-1.191-0.994l11.194-13.295l-2.796-2.361L135.301,84.6
	L135.301,84.6z M64.878,97.928c0.437-0.007,0.878,0.028,1.323,0.113c3.562,0.677,5.906,4.108,5.233,7.674
	c-0.673,3.566-4.107,5.91-7.671,5.233c-3.566-0.674-5.917-4.105-5.242-7.672C59.111,100.155,61.823,97.973,64.878,97.928
	L64.878,97.928z M157.416,98.667c3.188-0.063,6.032,2.21,6.593,5.448c0.616,3.577-1.782,6.97-5.356,7.59
	c-3.573,0.616-6.97-1.775-7.586-5.349c-0.617-3.577,1.778-6.981,5.355-7.597C156.756,98.703,157.085,98.674,157.416,98.667z
	 M82.791,103.344l-0.682,3.602l17.081,3.23l-0.293,1.529l-17.07-3.234l-0.686,3.601l-6.726-5.793L82.791,103.344L82.791,103.344z
	 M139.747,103.801l8.338,3.066l-6.829,5.684l-0.62-3.611l-17.126,2.955l-0.268-1.528l17.125-2.956L139.747,103.801L139.747,103.801z
	 M111.191,104.827c4.645,0,8.407,3.771,8.407,8.414c0,4.642-3.763,8.403-8.407,8.403s-8.411-3.762-8.411-8.403
	C102.78,108.598,106.547,104.827,111.191,104.827z M100.043,118.626l0.758,1.354l-15.138,8.527l1.796,3.196l-8.878-0.094
	l4.522-7.643l1.795,3.186L100.043,118.626z M122.256,118.802l15.011,8.774l1.84-3.164l4.401,7.709l-8.88-0.046l1.85-3.163l-15-8.771
	L122.256,118.802L122.256,118.802z M106.135,124.542l1.452,0.544l-6.082,16.282l3.428,1.282l-6.854,5.648l-1.465-8.756l3.439,1.281
	L106.135,124.542L106.135,124.542z M116.067,124.627l5.832,16.367l3.446-1.222l-1.6,8.731l-6.762-5.761l3.453-1.23l-5.828-16.368
	L116.067,124.627L116.067,124.627z M70.105,129.747c2.329-0.035,4.605,1.173,5.83,3.343c1.781,3.161,0.663,7.169-2.498,8.951
	c-3.162,1.779-7.168,0.659-8.949-2.498c-1.779-3.166-0.66-7.167,2.499-8.951C67.975,130.036,69.046,129.761,70.105,129.747
	L70.105,129.747z M151.693,130.402c1.161-0.021,2.342,0.265,3.421,0.896c3.137,1.828,4.188,5.853,2.354,8.985
	c-1.829,3.132-5.853,4.182-8.986,2.354c-3.133-1.833-4.189-5.856-2.36-8.985C147.323,131.594,149.473,130.44,151.693,130.402
	L151.693,130.402z M94.443,150.72c0.853-0.036,1.727,0.096,2.576,0.413c3.396,1.271,5.121,5.057,3.852,8.453
	c-1.273,3.399-5.055,5.127-8.454,3.857c-3.398-1.271-5.123-5.06-3.851-8.46C89.52,152.436,91.884,150.829,94.443,150.72
	L94.443,150.72z M127.027,150.974c2.678,0.021,5.176,1.695,6.127,4.362c1.216,3.417-0.57,7.182-3.988,8.397
	c-3.419,1.219-7.174-0.571-8.39-3.989c-1.215-3.418,0.571-7.17,3.988-8.39C125.511,151.087,126.275,150.968,127.027,150.974
	L127.027,150.974z"/>
</svg>
